<svg width="25" height="24" viewBox="0 0 25 24" fill="none" xmlns="http://www.w3.org/2000/svg">
<g clip-path="url(#clip0_164_443)">
<path d="M10.4 4.2371C11.0883 4.07597 11.7931 3.99543 12.5 3.9971C19.5 3.9971 23.5 11.9971 23.5 11.9971C22.893 13.1327 22.1691 14.2018 21.34 15.1871M14.62 14.1171C14.3454 14.4118 14.0141 14.6483 13.6462 14.8122C13.2782 14.9762 12.8809 15.0644 12.4781 15.0715C12.0753 15.0786 11.6752 15.0045 11.3016 14.8536C10.9281 14.7027 10.5887 14.4781 10.3038 14.1932C10.019 13.9084 9.79439 13.569 9.64351 13.1955C9.49262 12.8219 9.41853 12.4218 9.42563 12.019C9.43274 11.6162 9.52091 11.2189 9.68488 10.8509C9.84884 10.4829 10.0853 10.1517 10.38 9.8771M18.44 17.9371C16.7306 19.2401 14.6491 19.962 12.5 19.9971C5.5 19.9971 1.5 11.9971 1.5 11.9971C2.74389 9.67899 4.46914 7.6537 6.56 6.0571L18.44 17.9371Z" stroke="#fff" stroke-width="2" stroke-linecap="round" stroke-linejoin="round"/>
<path d="M1.5 0.997101L23.5 22.9971" stroke="#fff" stroke-width="2" stroke-linecap="round" stroke-linejoin="round"/>
</g>
<defs>
<clipPath id="clip0_164_443">
<rect width="24" height="24" fill="white" transform="translate(0.5 -0.00289917)"/>
</clipPath>
</defs>
</svg>
